<svg width="91" height="27" viewBox="0 0 91 27" fill="none" xmlns="http://www.w3.org/2000/svg">
<path d="M4.73 3.21L3.35 5.16V8.76H10.88V12H3.35V21H0.2V4.05L3.17 -1.43051e-06H13.22V3.21H4.73ZM26.6131 21.06H19.2631L15.9031 18.57V9.15L19.2631 6.69H26.6131L29.9431 9.15V18.57L26.6131 21.06ZM26.7931 10.77L25.5331 9.81H20.3131L19.0531 10.77V16.95L20.3131 17.91H25.5331L26.7931 16.95V10.77ZM41.9087 11.13L40.1087 9.81H36.9287L35.7587 10.71V21H32.6387V6.66H35.7587V7.83L37.0187 6.66H41.1587L43.7087 8.61L41.9087 11.13ZM46.4082 21V0.0599996H49.4982V11.58L54.5982 7.89V6.3H57.6582V9.6L51.9882 13.62L57.6582 17.67V21H54.5982V19.38L49.2282 15.6L49.4982 15.81V21H46.4082ZM60.3835 5.07V1.86H63.1435V5.07H60.3835ZM60.3535 21V6.66H63.0835V21H60.3535ZM72.0643 9.87V21H69.0043V9.87H65.9443V6.66H69.0043V4.02L71.8543 -1.43051e-06H75.2443V3.18H73.3543L72.0643 5.13V6.66H75.2443V9.87H72.0643ZM90.6287 6.66V15.12L81.4187 26.7L79.0187 24.66L82.1387 20.73L77.3387 15.06V6.66H80.4887V13.83L84.1187 18.18L87.5087 13.98V6.66H90.6287Z" fill="white"/>
</svg>
